<svg width="364" height="118" viewBox="0 0 364 118" fill="none" xmlns="http://www.w3.org/2000/svg">
<g filter="url(#filter0_d_4_137)">
<g filter="url(#filter1_d_4_137)">
<rect x="24" y="16" width="316" height="70" rx="16" fill="white" shape-rendering="crispEdges"/>
<path d="M54.588 46.27C53.616 46.27 52.755 46.105 52.005 45.775C51.255 45.445 50.622 44.983 50.106 44.389C49.596 43.795 49.206 43.084 48.936 42.256C48.672 41.428 48.54 40.516 48.54 39.52C48.54 38.518 48.672 37.603 48.936 36.775C49.206 35.947 49.596 35.236 50.106 34.642C50.622 34.048 51.255 33.589 52.005 33.265C52.755 32.935 53.616 32.77 54.588 32.77C55.56 32.77 56.421 32.935 57.171 33.265C57.921 33.589 58.551 34.048 59.061 34.642C59.577 35.236 59.967 35.947 60.231 36.775C60.501 37.603 60.636 38.518 60.636 39.52C60.636 40.516 60.501 41.428 60.231 42.256C59.967 43.084 59.577 43.795 59.061 44.389C58.551 44.983 57.921 45.445 57.171 45.775C56.421 46.105 55.56 46.27 54.588 46.27ZM54.588 44.74C55.314 44.74 55.947 44.614 56.487 44.362C57.033 44.11 57.486 43.756 57.846 43.3C58.212 42.838 58.485 42.286 58.665 41.644C58.845 41.002 58.935 40.294 58.935 39.52C58.935 38.746 58.845 38.038 58.665 37.396C58.485 36.754 58.212 36.205 57.846 35.749C57.486 35.287 57.033 34.93 56.487 34.678C55.947 34.426 55.314 34.3 54.588 34.3C53.862 34.3 53.229 34.426 52.689 34.678C52.149 34.93 51.696 35.287 51.33 35.749C50.97 36.205 50.7 36.754 50.52 37.396C50.34 38.038 50.247 38.746 50.241 39.52C50.235 40.294 50.322 41.002 50.502 41.644C50.682 42.286 50.955 42.838 51.321 43.3C51.687 43.756 52.14 44.11 52.68 44.362C53.226 44.614 53.862 44.74 54.588 44.74ZM62.4346 36.28H64.0366V44.488H68.0326V36.28H69.6346V44.488H73.6306V36.28H75.2326V46H62.4346V36.28ZM85.7101 36.28V46H84.1081V38.791L79.3471 46H77.7451V36.28H79.3471V43.489L84.1081 36.28H85.7101ZM92.1277 46.279C91.4377 46.273 90.8257 46.153 90.2917 45.919C89.7637 45.685 89.3137 45.349 88.9417 44.911C88.5697 44.467 88.2817 43.93 88.0777 43.3C87.8737 42.664 87.7537 41.947 87.7177 41.149C87.6937 40.753 87.6877 40.306 87.6997 39.808C87.7117 39.31 87.7477 38.821 87.8077 38.341C87.8677 37.855 87.9427 37.405 88.0327 36.991C88.1287 36.577 88.2517 36.199 88.4017 35.857C88.5577 35.509 88.7467 35.197 88.9687 34.921C89.1907 34.645 89.4577 34.405 89.7697 34.201C90.0637 34.009 90.3667 33.856 90.6787 33.742C90.9907 33.622 91.3117 33.526 91.6417 33.454C91.9717 33.382 92.3107 33.325 92.6587 33.283C93.0127 33.235 93.3757 33.19 93.7477 33.148C94.1257 33.106 94.5127 33.058 94.9087 33.004C95.3047 32.944 95.7157 32.866 96.1417 32.77L96.2587 34.282C95.6467 34.426 95.0767 34.528 94.5487 34.588C94.0207 34.642 93.5287 34.696 93.0727 34.75C92.6227 34.804 92.2027 34.876 91.8127 34.966C91.4287 35.05 91.0687 35.191 90.7327 35.389C90.5047 35.521 90.3097 35.677 90.1477 35.857C89.9857 36.037 89.8477 36.256 89.7337 36.514C89.6197 36.766 89.5267 37.066 89.4547 37.414C89.3887 37.762 89.3347 38.17 89.2927 38.638C89.6707 38.05 90.1327 37.621 90.6787 37.351C91.2247 37.081 91.8457 36.946 92.5417 36.946C93.1597 36.946 93.7237 37.057 94.2337 37.279C94.7497 37.501 95.1907 37.816 95.5567 38.224C95.9227 38.632 96.2077 39.121 96.4117 39.691C96.6157 40.255 96.7177 40.885 96.7177 41.581C96.7177 42.295 96.6067 42.943 96.3847 43.525C96.1627 44.101 95.8507 44.596 95.4487 45.01C95.0467 45.418 94.5637 45.733 93.9997 45.955C93.4357 46.177 92.8117 46.285 92.1277 46.279ZM92.1817 44.758C92.6317 44.758 93.0337 44.686 93.3877 44.542C93.7417 44.392 94.0387 44.182 94.2787 43.912C94.5247 43.636 94.7107 43.306 94.8367 42.922C94.9627 42.538 95.0257 42.109 95.0257 41.635C95.0257 41.149 94.9627 40.714 94.8367 40.33C94.7167 39.94 94.5367 39.607 94.2967 39.331C94.0627 39.055 93.7747 38.845 93.4327 38.701C93.0907 38.551 92.7007 38.476 92.2627 38.476C91.8067 38.476 91.4017 38.551 91.0477 38.701C90.6997 38.845 90.4057 39.055 90.1657 39.331C89.9257 39.601 89.7427 39.931 89.6167 40.321C89.4907 40.711 89.4277 41.149 89.4277 41.635C89.4277 42.109 89.4907 42.541 89.6167 42.931C89.7427 43.315 89.9227 43.642 90.1567 43.912C90.3967 44.182 90.6877 44.392 91.0297 44.542C91.3717 44.686 91.7557 44.758 92.1817 44.758ZM98.6807 36.28H100.283V40.96L104.36 36.28H106.439L102.146 41.14L106.943 46H104.702L100.283 41.32V46H98.6807V36.28ZM111.682 36.01C113.008 36.01 113.998 36.352 114.652 37.036C115.306 37.714 115.633 38.743 115.633 40.123V46H114.031V44.47C113.689 45.064 113.233 45.514 112.663 45.82C112.099 46.12 111.424 46.27 110.638 46.27C110.128 46.27 109.666 46.204 109.252 46.072C108.844 45.94 108.496 45.751 108.208 45.505C107.92 45.253 107.698 44.953 107.542 44.605C107.386 44.251 107.308 43.855 107.308 43.417C107.308 42.919 107.398 42.487 107.578 42.121C107.764 41.755 108.025 41.446 108.361 41.194C108.703 40.942 109.114 40.741 109.594 40.591C110.08 40.441 110.626 40.327 111.232 40.249L114.031 39.907C114.025 39.055 113.83 38.434 113.446 38.044C113.062 37.654 112.468 37.459 111.664 37.459C110.974 37.459 110.425 37.594 110.017 37.864C109.609 38.134 109.324 38.554 109.162 39.124L107.668 38.746C107.908 37.852 108.37 37.174 109.054 36.712C109.744 36.244 110.62 36.01 111.682 36.01ZM111.412 41.482C110.524 41.596 109.882 41.797 109.486 42.085C109.09 42.367 108.892 42.775 108.892 43.309C108.892 43.831 109.066 44.224 109.414 44.488C109.762 44.752 110.281 44.884 110.971 44.884C111.349 44.884 111.697 44.833 112.015 44.731C112.339 44.623 112.624 44.473 112.87 44.281C113.122 44.089 113.332 43.858 113.5 43.588C113.674 43.318 113.8 43.018 113.878 42.688C113.956 42.442 114.001 42.184 114.013 41.914C114.025 41.644 114.031 41.401 114.031 41.185V41.158L111.412 41.482ZM118.693 46V44.236H120.457V46H118.693ZM118.702 38.044V36.28H120.466V38.044H118.702ZM127.21 46V36.28H135.085V46H133.483V37.792H128.812V46H127.21ZM141.748 46.27C141.028 46.27 140.377 46.144 139.795 45.892C139.219 45.64 138.727 45.289 138.319 44.839C137.917 44.383 137.608 43.84 137.392 43.21C137.176 42.58 137.068 41.887 137.068 41.131C137.068 40.369 137.176 39.676 137.392 39.052C137.614 38.422 137.926 37.882 138.328 37.432C138.736 36.982 139.228 36.634 139.804 36.388C140.386 36.136 141.034 36.01 141.748 36.01C142.474 36.01 143.125 36.136 143.701 36.388C144.283 36.634 144.775 36.985 145.177 37.441C145.585 37.891 145.897 38.431 146.113 39.061C146.329 39.685 146.437 40.375 146.437 41.131C146.437 41.893 146.326 42.589 146.104 43.219C145.888 43.849 145.576 44.392 145.168 44.848C144.766 45.298 144.274 45.649 143.692 45.901C143.116 46.147 142.468 46.27 141.748 46.27ZM141.748 44.749C142.24 44.749 142.672 44.665 143.044 44.497C143.416 44.323 143.728 44.08 143.98 43.768C144.232 43.45 144.421 43.069 144.547 42.625C144.673 42.175 144.736 41.677 144.736 41.131C144.736 40.573 144.673 40.072 144.547 39.628C144.421 39.184 144.232 38.806 143.98 38.494C143.728 38.182 143.416 37.945 143.044 37.783C142.672 37.615 142.24 37.531 141.748 37.531C141.256 37.531 140.821 37.615 140.443 37.783C140.071 37.951 139.762 38.194 139.516 38.512C139.27 38.824 139.084 39.202 138.958 39.646C138.832 40.084 138.769 40.579 138.769 41.131C138.769 41.689 138.832 42.19 138.958 42.634C139.09 43.078 139.282 43.459 139.534 43.777C139.786 44.089 140.095 44.329 140.461 44.497C140.833 44.665 141.262 44.749 141.748 44.749ZM147.518 44.731C147.674 44.779 147.809 44.803 147.923 44.803C148.175 44.803 148.382 44.713 148.544 44.533C148.712 44.353 148.844 44.092 148.94 43.75C149.042 43.408 149.114 42.991 149.156 42.499C149.198 42.001 149.219 41.437 149.219 40.807V36.28H156.374V46H154.772V37.792H150.722V41.257C150.722 42.979 150.527 44.245 150.137 45.055C149.747 45.865 149.168 46.27 148.4 46.27C148.118 46.27 147.824 46.222 147.518 46.126V44.731ZM163.251 46H158.895V36.28H160.497V39.853H163.251C163.827 39.853 164.328 39.931 164.754 40.087C165.186 40.243 165.543 40.459 165.825 40.735C166.113 41.005 166.326 41.329 166.464 41.707C166.608 42.079 166.68 42.484 166.68 42.922C166.68 43.36 166.608 43.768 166.464 44.146C166.326 44.518 166.113 44.842 165.825 45.118C165.543 45.394 165.186 45.61 164.754 45.766C164.328 45.922 163.827 46 163.251 46ZM163.044 44.641C163.392 44.641 163.692 44.599 163.944 44.515C164.202 44.425 164.415 44.305 164.583 44.155C164.751 43.999 164.874 43.816 164.952 43.606C165.036 43.396 165.078 43.168 165.078 42.922C165.078 42.676 165.036 42.448 164.952 42.238C164.874 42.028 164.751 41.848 164.583 41.698C164.415 41.542 164.202 41.422 163.944 41.338C163.692 41.248 163.392 41.203 163.044 41.203H160.497V44.641H163.044ZM172.061 46.27C171.497 46.27 170.978 46.207 170.504 46.081C170.03 45.955 169.613 45.763 169.253 45.505C168.893 45.241 168.593 44.908 168.353 44.506C168.119 44.104 167.954 43.63 167.858 43.084L169.388 42.805C169.49 43.489 169.763 43.999 170.207 44.335C170.657 44.671 171.26 44.839 172.016 44.839C172.802 44.839 173.399 44.692 173.807 44.398C174.221 44.104 174.428 43.702 174.428 43.192C174.428 42.916 174.377 42.682 174.275 42.49C174.179 42.298 174.044 42.142 173.87 42.022C173.696 41.896 173.489 41.806 173.249 41.752C173.009 41.698 172.748 41.671 172.466 41.671H170.972V40.348H172.466C173.012 40.348 173.432 40.237 173.726 40.015C174.026 39.793 174.176 39.472 174.176 39.052C174.176 38.536 173.993 38.14 173.627 37.864C173.261 37.582 172.724 37.441 172.016 37.441C171.65 37.441 171.326 37.48 171.044 37.558C170.768 37.636 170.531 37.75 170.333 37.9C170.135 38.044 169.97 38.224 169.838 38.44C169.712 38.656 169.616 38.899 169.55 39.169L168.02 38.89C168.152 38.35 168.347 37.897 168.605 37.531C168.869 37.159 169.178 36.862 169.532 36.64C169.892 36.412 170.285 36.25 170.711 36.154C171.137 36.058 171.584 36.01 172.052 36.01C172.64 36.01 173.162 36.079 173.618 36.217C174.08 36.349 174.47 36.544 174.788 36.802C175.106 37.054 175.346 37.363 175.508 37.729C175.676 38.089 175.76 38.5 175.76 38.962C175.76 39.46 175.652 39.874 175.436 40.204C175.22 40.534 174.905 40.789 174.491 40.969C174.707 41.035 174.908 41.137 175.094 41.275C175.28 41.413 175.442 41.578 175.58 41.77C175.718 41.962 175.826 42.181 175.904 42.427C175.982 42.667 176.021 42.928 176.021 43.21C176.021 43.66 175.931 44.074 175.751 44.452C175.577 44.824 175.319 45.145 174.977 45.415C174.641 45.685 174.227 45.895 173.735 46.045C173.243 46.195 172.685 46.27 172.061 46.27ZM182.142 46.27C181.422 46.27 180.771 46.144 180.189 45.892C179.613 45.64 179.121 45.289 178.713 44.839C178.311 44.383 178.002 43.84 177.786 43.21C177.57 42.58 177.462 41.887 177.462 41.131C177.462 40.369 177.57 39.676 177.786 39.052C178.008 38.422 178.32 37.882 178.722 37.432C179.13 36.982 179.622 36.634 180.198 36.388C180.78 36.136 181.428 36.01 182.142 36.01C182.868 36.01 183.519 36.136 184.095 36.388C184.677 36.634 185.169 36.985 185.571 37.441C185.979 37.891 186.291 38.431 186.507 39.061C186.723 39.685 186.831 40.375 186.831 41.131C186.831 41.893 186.72 42.589 186.498 43.219C186.282 43.849 185.97 44.392 185.562 44.848C185.16 45.298 184.668 45.649 184.086 45.901C183.51 46.147 182.862 46.27 182.142 46.27ZM182.142 44.749C182.634 44.749 183.066 44.665 183.438 44.497C183.81 44.323 184.122 44.08 184.374 43.768C184.626 43.45 184.815 43.069 184.941 42.625C185.067 42.175 185.13 41.677 185.13 41.131C185.13 40.573 185.067 40.072 184.941 39.628C184.815 39.184 184.626 38.806 184.374 38.494C184.122 38.182 183.81 37.945 183.438 37.783C183.066 37.615 182.634 37.531 182.142 37.531C181.65 37.531 181.215 37.615 180.837 37.783C180.465 37.951 180.156 38.194 179.91 38.512C179.664 38.824 179.478 39.202 179.352 39.646C179.226 40.084 179.163 40.579 179.163 41.131C179.163 41.689 179.226 42.19 179.352 42.634C179.484 43.078 179.676 43.459 179.928 43.777C180.18 44.089 180.489 44.329 180.855 44.497C181.227 44.665 181.656 44.749 182.142 44.749ZM192.863 46H188.804V36.28H192.692C193.832 36.28 194.699 36.502 195.293 36.946C195.887 37.384 196.184 38.032 196.184 38.89C196.184 39.436 196.061 39.88 195.815 40.222C195.569 40.564 195.245 40.813 194.843 40.969C195.071 41.035 195.284 41.137 195.482 41.275C195.68 41.413 195.851 41.584 195.995 41.788C196.145 41.986 196.262 42.214 196.346 42.472C196.43 42.73 196.472 43.009 196.472 43.309C196.472 44.191 196.166 44.86 195.554 45.316C194.942 45.772 194.045 46 192.863 46ZM192.692 37.603H190.307V40.384H192.962C193.208 40.384 193.433 40.36 193.637 40.312C193.847 40.258 194.024 40.177 194.168 40.069C194.318 39.955 194.432 39.814 194.51 39.646C194.594 39.478 194.636 39.277 194.636 39.043C194.636 38.527 194.48 38.158 194.168 37.936C193.862 37.714 193.37 37.603 192.692 37.603ZM192.836 44.677C193.526 44.677 194.045 44.56 194.393 44.326C194.747 44.092 194.924 43.717 194.924 43.201C194.924 42.931 194.876 42.7 194.78 42.508C194.69 42.316 194.564 42.16 194.402 42.04C194.24 41.914 194.048 41.824 193.826 41.77C193.61 41.716 193.376 41.689 193.124 41.689H190.316V44.677H192.836ZM202.104 36.01C203.43 36.01 204.42 36.352 205.074 37.036C205.728 37.714 206.055 38.743 206.055 40.123V46H204.453V44.47C204.111 45.064 203.655 45.514 203.085 45.82C202.521 46.12 201.846 46.27 201.06 46.27C200.55 46.27 200.088 46.204 199.674 46.072C199.266 45.94 198.918 45.751 198.63 45.505C198.342 45.253 198.12 44.953 197.964 44.605C197.808 44.251 197.73 43.855 197.73 43.417C197.73 42.919 197.82 42.487 198 42.121C198.186 41.755 198.447 41.446 198.783 41.194C199.125 40.942 199.536 40.741 200.016 40.591C200.502 40.441 201.048 40.327 201.654 40.249L204.453 39.907C204.447 39.055 204.252 38.434 203.868 38.044C203.484 37.654 202.89 37.459 202.086 37.459C201.396 37.459 200.847 37.594 200.439 37.864C200.031 38.134 199.746 38.554 199.584 39.124L198.09 38.746C198.33 37.852 198.792 37.174 199.476 36.712C200.166 36.244 201.042 36.01 202.104 36.01ZM201.834 41.482C200.946 41.596 200.304 41.797 199.908 42.085C199.512 42.367 199.314 42.775 199.314 43.309C199.314 43.831 199.488 44.224 199.836 44.488C200.184 44.752 200.703 44.884 201.393 44.884C201.771 44.884 202.119 44.833 202.437 44.731C202.761 44.623 203.046 44.473 203.292 44.281C203.544 44.089 203.754 43.858 203.922 43.588C204.096 43.318 204.222 43.018 204.3 42.688C204.378 42.442 204.423 42.184 204.435 41.914C204.447 41.644 204.453 41.401 204.453 41.185V41.158L201.834 41.482ZM210.924 46V37.792H207.585V36.28H215.865V37.792H212.526V46H210.924ZM221.747 44.767C222.419 44.767 222.977 44.62 223.421 44.326C223.865 44.032 224.222 43.609 224.492 43.057L226.04 43.57C225.656 44.44 225.092 45.109 224.348 45.577C223.61 46.039 222.743 46.27 221.747 46.27C221.039 46.27 220.394 46.147 219.812 45.901C219.23 45.655 218.732 45.31 218.318 44.866C217.91 44.416 217.592 43.876 217.364 43.246C217.142 42.616 217.031 41.914 217.031 41.14C217.031 40.36 217.142 39.655 217.364 39.025C217.586 38.389 217.901 37.849 218.309 37.405C218.723 36.961 219.218 36.619 219.794 36.379C220.37 36.133 221.009 36.01 221.711 36.01C222.455 36.01 223.115 36.139 223.691 36.397C224.267 36.655 224.747 37.024 225.131 37.504C225.515 37.984 225.797 38.569 225.977 39.259C226.163 39.949 226.238 40.726 226.202 41.59H218.75C218.786 42.094 218.879 42.544 219.029 42.94C219.185 43.33 219.392 43.66 219.65 43.93C219.908 44.2 220.211 44.407 220.559 44.551C220.913 44.695 221.309 44.767 221.747 44.767ZM224.537 40.303C224.465 39.391 224.186 38.692 223.7 38.206C223.214 37.714 222.551 37.468 221.711 37.468C220.883 37.468 220.217 37.714 219.713 38.206C219.215 38.698 218.906 39.397 218.786 40.303H224.537ZM227.305 44.731C227.461 44.779 227.596 44.803 227.71 44.803C227.962 44.803 228.169 44.713 228.331 44.533C228.499 44.353 228.631 44.092 228.727 43.75C228.829 43.408 228.901 42.991 228.943 42.499C228.985 42.001 229.006 41.437 229.006 40.807V36.28H236.161V46H234.559V37.792H230.509V41.257C230.509 42.979 230.314 44.245 229.924 45.055C229.534 45.865 228.955 46.27 228.187 46.27C227.905 46.27 227.611 46.222 227.305 46.126V44.731ZM243.038 46H238.682V36.28H240.284V39.853H243.038C243.614 39.853 244.115 39.931 244.541 40.087C244.973 40.243 245.33 40.459 245.612 40.735C245.9 41.005 246.113 41.329 246.251 41.707C246.395 42.079 246.467 42.484 246.467 42.922C246.467 43.36 246.395 43.768 246.251 44.146C246.113 44.518 245.9 44.842 245.612 45.118C245.33 45.394 244.973 45.61 244.541 45.766C244.115 45.922 243.614 46 243.038 46ZM242.831 44.641C243.179 44.641 243.479 44.599 243.731 44.515C243.989 44.425 244.202 44.305 244.37 44.155C244.538 43.999 244.661 43.816 244.739 43.606C244.823 43.396 244.865 43.168 244.865 42.922C244.865 42.676 244.823 42.448 244.739 42.238C244.661 42.028 244.538 41.848 244.37 41.698C244.202 41.542 243.989 41.422 243.731 41.338C243.479 41.248 243.179 41.203 242.831 41.203H240.284V44.641H242.831ZM256.154 46.27C255.434 46.27 254.786 46.147 254.21 45.901C253.64 45.649 253.154 45.298 252.752 44.848C252.356 44.398 252.05 43.858 251.834 43.228C251.624 42.598 251.519 41.902 251.519 41.14C251.519 40.366 251.627 39.664 251.843 39.034C252.059 38.404 252.365 37.867 252.761 37.423C253.163 36.973 253.652 36.625 254.228 36.379C254.804 36.133 255.452 36.01 256.172 36.01C256.688 36.01 257.168 36.076 257.612 36.208C258.062 36.34 258.464 36.529 258.818 36.775C259.178 37.015 259.484 37.309 259.736 37.657C259.994 38.005 260.186 38.398 260.312 38.836L258.728 39.313C258.518 38.749 258.185 38.311 257.729 37.999C257.279 37.687 256.754 37.531 256.154 37.531C255.674 37.531 255.251 37.618 254.885 37.792C254.519 37.96 254.213 38.2 253.967 38.512C253.721 38.824 253.535 39.202 253.409 39.646C253.283 40.09 253.22 40.588 253.22 41.14C253.22 41.68 253.28 42.172 253.4 42.616C253.526 43.06 253.712 43.441 253.958 43.759C254.204 44.071 254.51 44.314 254.876 44.488C255.242 44.662 255.668 44.749 256.154 44.749C256.796 44.749 257.324 44.602 257.738 44.308C258.158 44.014 258.476 43.594 258.692 43.048L260.312 43.471C259.97 44.383 259.442 45.079 258.728 45.559C258.02 46.033 257.162 46.27 256.154 46.27ZM268.281 46V37.792H264.942V36.28H273.222V37.792H269.883V46H268.281ZM278.446 36.01C279.772 36.01 280.762 36.352 281.416 37.036C282.07 37.714 282.397 38.743 282.397 40.123V46H280.795V44.47C280.453 45.064 279.997 45.514 279.427 45.82C278.863 46.12 278.188 46.27 277.402 46.27C276.892 46.27 276.43 46.204 276.016 46.072C275.608 45.94 275.26 45.751 274.972 45.505C274.684 45.253 274.462 44.953 274.306 44.605C274.15 44.251 274.072 43.855 274.072 43.417C274.072 42.919 274.162 42.487 274.342 42.121C274.528 41.755 274.789 41.446 275.125 41.194C275.467 40.942 275.878 40.741 276.358 40.591C276.844 40.441 277.39 40.327 277.996 40.249L280.795 39.907C280.789 39.055 280.594 38.434 280.21 38.044C279.826 37.654 279.232 37.459 278.428 37.459C277.738 37.459 277.189 37.594 276.781 37.864C276.373 38.134 276.088 38.554 275.926 39.124L274.432 38.746C274.672 37.852 275.134 37.174 275.818 36.712C276.508 36.244 277.384 36.01 278.446 36.01ZM278.176 41.482C277.288 41.596 276.646 41.797 276.25 42.085C275.854 42.367 275.656 42.775 275.656 43.309C275.656 43.831 275.83 44.224 276.178 44.488C276.526 44.752 277.045 44.884 277.735 44.884C278.113 44.884 278.461 44.833 278.779 44.731C279.103 44.623 279.388 44.473 279.634 44.281C279.886 44.089 280.096 43.858 280.264 43.588C280.438 43.318 280.564 43.018 280.642 42.688C280.72 42.442 280.765 42.184 280.777 41.914C280.789 41.644 280.795 41.401 280.795 41.185V41.158L278.176 41.482ZM284.728 36.28H286.33V40.96L290.407 36.28H292.486L288.193 41.14L292.99 46H290.749L286.33 41.32V46H284.728V36.28ZM301.851 36.28V46H300.249V38.791L295.488 46H293.886V36.28H295.488V43.489L300.249 36.28H301.851ZM304.362 46V36.28H305.964L309.249 42.724L312.534 36.28H314.136V46H312.534V39.403L309.924 44.551H308.574L305.964 39.403V46H304.362ZM48.36 67.731C48.516 67.779 48.651 67.803 48.765 67.803C49.017 67.803 49.224 67.713 49.386 67.533C49.554 67.353 49.686 67.092 49.782 66.75C49.884 66.408 49.956 65.991 49.998 65.499C50.04 65.001 50.061 64.437 50.061 63.807V59.28H57.216V69H55.614V60.792H51.564V64.257C51.564 65.979 51.369 67.245 50.979 68.055C50.589 68.865 50.01 69.27 49.242 69.27C48.96 69.27 48.666 69.222 48.36 69.126V67.731ZM63.8766 69.27C63.1566 69.27 62.5056 69.144 61.9236 68.892C61.3476 68.64 60.8556 68.289 60.4476 67.839C60.0456 67.383 59.7366 66.84 59.5206 66.21C59.3046 65.58 59.1966 64.887 59.1966 64.131C59.1966 63.369 59.3046 62.676 59.5206 62.052C59.7426 61.422 60.0546 60.882 60.4566 60.432C60.8646 59.982 61.3566 59.634 61.9326 59.388C62.5146 59.136 63.1626 59.01 63.8766 59.01C64.6026 59.01 65.2536 59.136 65.8296 59.388C66.4116 59.634 66.9036 59.985 67.3056 60.441C67.7136 60.891 68.0256 61.431 68.2416 62.061C68.4576 62.685 68.5656 63.375 68.5656 64.131C68.5656 64.893 68.4546 65.589 68.2326 66.219C68.0166 66.849 67.7046 67.392 67.2966 67.848C66.8946 68.298 66.4026 68.649 65.8206 68.901C65.2446 69.147 64.5966 69.27 63.8766 69.27ZM63.8766 67.749C64.3686 67.749 64.8006 67.665 65.1726 67.497C65.5446 67.323 65.8566 67.08 66.1086 66.768C66.3606 66.45 66.5496 66.069 66.6756 65.625C66.8016 65.175 66.8646 64.677 66.8646 64.131C66.8646 63.573 66.8016 63.072 66.6756 62.628C66.5496 62.184 66.3606 61.806 66.1086 61.494C65.8566 61.182 65.5446 60.945 65.1726 60.783C64.8006 60.615 64.3686 60.531 63.8766 60.531C63.3846 60.531 62.9496 60.615 62.5716 60.783C62.1996 60.951 61.8906 61.194 61.6446 61.512C61.3986 61.824 61.2126 62.202 61.0866 62.646C60.9606 63.084 60.8976 63.579 60.8976 64.131C60.8976 64.689 60.9606 65.19 61.0866 65.634C61.2186 66.078 61.4106 66.459 61.6626 66.777C61.9146 67.089 62.2236 67.329 62.5896 67.497C62.9616 67.665 63.3906 67.749 63.8766 67.749ZM70.5471 69V59.28H76.8921V60.792H72.1581V69H70.5471ZM86.5539 59.28V69H84.9519V61.791L80.1909 69H78.5889V59.28H80.1909V66.489L84.9519 59.28H86.5539ZM89.0655 69V59.28H90.6675V63.384H95.7795V59.28H97.3815V69H95.7795V64.896H90.6675V69H89.0655ZM104.043 69.27C103.323 69.27 102.672 69.144 102.09 68.892C101.514 68.64 101.022 68.289 100.614 67.839C100.212 67.383 99.9026 66.84 99.6866 66.21C99.4706 65.58 99.3626 64.887 99.3626 64.131C99.3626 63.369 99.4706 62.676 99.6866 62.052C99.9086 61.422 100.221 60.882 100.623 60.432C101.031 59.982 101.523 59.634 102.099 59.388C102.681 59.136 103.329 59.01 104.043 59.01C104.769 59.01 105.42 59.136 105.996 59.388C106.578 59.634 107.07 59.985 107.472 60.441C107.88 60.891 108.192 61.431 108.408 62.061C108.624 62.685 108.732 63.375 108.732 64.131C108.732 64.893 108.621 65.589 108.399 66.219C108.183 66.849 107.871 67.392 107.463 67.848C107.061 68.298 106.569 68.649 105.987 68.901C105.411 69.147 104.763 69.27 104.043 69.27ZM104.043 67.749C104.535 67.749 104.967 67.665 105.339 67.497C105.711 67.323 106.023 67.08 106.275 66.768C106.527 66.45 106.716 66.069 106.842 65.625C106.968 65.175 107.031 64.677 107.031 64.131C107.031 63.573 106.968 63.072 106.842 62.628C106.716 62.184 106.527 61.806 106.275 61.494C106.023 61.182 105.711 60.945 105.339 60.783C104.967 60.615 104.535 60.531 104.043 60.531C103.551 60.531 103.116 60.615 102.738 60.783C102.366 60.951 102.057 61.194 101.811 61.512C101.565 61.824 101.379 62.202 101.253 62.646C101.127 63.084 101.064 63.579 101.064 64.131C101.064 64.689 101.127 65.19 101.253 65.634C101.385 66.078 101.577 66.459 101.829 66.777C102.081 67.089 102.39 67.329 102.756 67.497C103.128 67.665 103.557 67.749 104.043 67.749ZM110.704 69V59.28H112.306L115.591 65.724L118.876 59.28H120.478V69H118.876V62.403L116.266 67.551H114.916L112.306 62.403V69H110.704ZM126.595 69V59.28H128.197V63.384H133.309V59.28H134.911V69H133.309V64.896H128.197V69H126.595ZM141.608 67.767C142.28 67.767 142.838 67.62 143.282 67.326C143.726 67.032 144.083 66.609 144.353 66.057L145.901 66.57C145.517 67.44 144.953 68.109 144.209 68.577C143.471 69.039 142.604 69.27 141.608 69.27C140.9 69.27 140.255 69.147 139.673 68.901C139.091 68.655 138.593 68.31 138.179 67.866C137.771 67.416 137.453 66.876 137.225 66.246C137.003 65.616 136.892 64.914 136.892 64.14C136.892 63.36 137.003 62.655 137.225 62.025C137.447 61.389 137.762 60.849 138.17 60.405C138.584 59.961 139.079 59.619 139.655 59.379C140.231 59.133 140.87 59.01 141.572 59.01C142.316 59.01 142.976 59.139 143.552 59.397C144.128 59.655 144.608 60.024 144.992 60.504C145.376 60.984 145.658 61.569 145.838 62.259C146.024 62.949 146.099 63.726 146.063 64.59H138.611C138.647 65.094 138.74 65.544 138.89 65.94C139.046 66.33 139.253 66.66 139.511 66.93C139.769 67.2 140.072 67.407 140.42 67.551C140.774 67.695 141.17 67.767 141.608 67.767ZM144.398 63.303C144.326 62.391 144.047 61.692 143.561 61.206C143.075 60.714 142.412 60.468 141.572 60.468C140.744 60.468 140.078 60.714 139.574 61.206C139.076 61.698 138.767 62.397 138.647 63.303H144.398ZM155.765 69.27C155.045 69.27 154.397 69.147 153.821 68.901C153.251 68.649 152.765 68.298 152.363 67.848C151.967 67.398 151.661 66.858 151.445 66.228C151.235 65.598 151.13 64.902 151.13 64.14C151.13 63.366 151.238 62.664 151.454 62.034C151.67 61.404 151.976 60.867 152.372 60.423C152.774 59.973 153.263 59.625 153.839 59.379C154.415 59.133 155.063 59.01 155.783 59.01C156.299 59.01 156.779 59.076 157.223 59.208C157.673 59.34 158.075 59.529 158.429 59.775C158.789 60.015 159.095 60.309 159.347 60.657C159.605 61.005 159.797 61.398 159.923 61.836L158.339 62.313C158.129 61.749 157.796 61.311 157.34 60.999C156.89 60.687 156.365 60.531 155.765 60.531C155.285 60.531 154.862 60.618 154.496 60.792C154.13 60.96 153.824 61.2 153.578 61.512C153.332 61.824 153.146 62.202 153.02 62.646C152.894 63.09 152.831 63.588 152.831 64.14C152.831 64.68 152.891 65.172 153.011 65.616C153.137 66.06 153.323 66.441 153.569 66.759C153.815 67.071 154.121 67.314 154.487 67.488C154.853 67.662 155.279 67.749 155.765 67.749C156.407 67.749 156.935 67.602 157.349 67.308C157.769 67.014 158.087 66.594 158.303 66.048L159.923 66.471C159.581 67.383 159.053 68.079 158.339 68.559C157.631 69.033 156.773 69.27 155.765 69.27ZM162.846 73.32L164.448 68.964L160.506 59.28H162.189L165.222 66.93L168.066 59.28H169.695L164.403 73.32H162.846ZM183.638 71.07V69H171.182V59.28H172.784V67.488H176.78V59.28H178.382V67.488H182.378V59.28H183.98V67.488H185.24V71.07H183.638ZM190.862 67.767C191.534 67.767 192.092 67.62 192.536 67.326C192.98 67.032 193.337 66.609 193.607 66.057L195.155 66.57C194.771 67.44 194.207 68.109 193.463 68.577C192.725 69.039 191.858 69.27 190.862 69.27C190.154 69.27 189.509 69.147 188.927 68.901C188.345 68.655 187.847 68.31 187.433 67.866C187.025 67.416 186.707 66.876 186.479 66.246C186.257 65.616 186.146 64.914 186.146 64.14C186.146 63.36 186.257 62.655 186.479 62.025C186.701 61.389 187.016 60.849 187.424 60.405C187.838 59.961 188.333 59.619 188.909 59.379C189.485 59.133 190.124 59.01 190.826 59.01C191.57 59.01 192.23 59.139 192.806 59.397C193.382 59.655 193.862 60.024 194.246 60.504C194.63 60.984 194.912 61.569 195.092 62.259C195.278 62.949 195.353 63.726 195.317 64.59H187.865C187.901 65.094 187.994 65.544 188.144 65.94C188.3 66.33 188.507 66.66 188.765 66.93C189.023 67.2 189.326 67.407 189.674 67.551C190.028 67.695 190.424 67.767 190.862 67.767ZM193.652 63.303C193.58 62.391 193.301 61.692 192.815 61.206C192.329 60.714 191.666 60.468 190.826 60.468C189.998 60.468 189.332 60.714 188.828 61.206C188.33 61.698 188.021 62.397 187.901 63.303H193.652ZM201.416 69.27C200.696 69.27 200.048 69.147 199.472 68.901C198.902 68.649 198.416 68.298 198.014 67.848C197.618 67.398 197.312 66.858 197.096 66.228C196.886 65.598 196.781 64.902 196.781 64.14C196.781 63.366 196.889 62.664 197.105 62.034C197.321 61.404 197.627 60.867 198.023 60.423C198.425 59.973 198.914 59.625 199.49 59.379C200.066 59.133 200.714 59.01 201.434 59.01C201.95 59.01 202.43 59.076 202.874 59.208C203.324 59.34 203.726 59.529 204.08 59.775C204.44 60.015 204.746 60.309 204.998 60.657C205.256 61.005 205.448 61.398 205.574 61.836L203.99 62.313C203.78 61.749 203.447 61.311 202.991 60.999C202.541 60.687 202.016 60.531 201.416 60.531C200.936 60.531 200.513 60.618 200.147 60.792C199.781 60.96 199.475 61.2 199.229 61.512C198.983 61.824 198.797 62.202 198.671 62.646C198.545 63.09 198.482 63.588 198.482 64.14C198.482 64.68 198.542 65.172 198.662 65.616C198.788 66.06 198.974 66.441 199.22 66.759C199.466 67.071 199.772 67.314 200.138 67.488C200.504 67.662 200.93 67.749 201.416 67.749C202.058 67.749 202.586 67.602 203 67.308C203.42 67.014 203.738 66.594 203.954 66.048L205.574 66.471C205.232 67.383 204.704 68.079 203.99 68.559C203.282 69.033 202.424 69.27 201.416 69.27ZM209.588 69V60.792H206.249V59.28H214.529V60.792H211.19V69H209.588ZM220.285 69H216.226V59.28H220.114C221.254 59.28 222.121 59.502 222.715 59.946C223.309 60.384 223.606 61.032 223.606 61.89C223.606 62.436 223.483 62.88 223.237 63.222C222.991 63.564 222.667 63.813 222.265 63.969C222.493 64.035 222.706 64.137 222.904 64.275C223.102 64.413 223.273 64.584 223.417 64.788C223.567 64.986 223.684 65.214 223.768 65.472C223.852 65.73 223.894 66.009 223.894 66.309C223.894 67.191 223.588 67.86 222.976 68.316C222.364 68.772 221.467 69 220.285 69ZM220.114 60.603H217.729V63.384H220.384C220.63 63.384 220.855 63.36 221.059 63.312C221.269 63.258 221.446 63.177 221.59 63.069C221.74 62.955 221.854 62.814 221.932 62.646C222.016 62.478 222.058 62.277 222.058 62.043C222.058 61.527 221.902 61.158 221.59 60.936C221.284 60.714 220.792 60.603 220.114 60.603ZM220.258 67.677C220.948 67.677 221.467 67.56 221.815 67.326C222.169 67.092 222.346 66.717 222.346 66.201C222.346 65.931 222.298 65.7 222.202 65.508C222.112 65.316 221.986 65.16 221.824 65.04C221.662 64.914 221.47 64.824 221.248 64.77C221.032 64.716 220.798 64.689 220.546 64.689H217.738V67.677H220.258ZM227.042 73.32L228.644 68.964L224.702 59.28H226.385L229.418 66.93L232.262 59.28H233.891L228.599 73.32H227.042ZM239.553 67.767C240.225 67.767 240.783 67.62 241.227 67.326C241.671 67.032 242.028 66.609 242.298 66.057L243.846 66.57C243.462 67.44 242.898 68.109 242.154 68.577C241.416 69.039 240.549 69.27 239.553 69.27C238.845 69.27 238.2 69.147 237.618 68.901C237.036 68.655 236.538 68.31 236.124 67.866C235.716 67.416 235.398 66.876 235.17 66.246C234.948 65.616 234.837 64.914 234.837 64.14C234.837 63.36 234.948 62.655 235.17 62.025C235.392 61.389 235.707 60.849 236.115 60.405C236.529 59.961 237.024 59.619 237.6 59.379C238.176 59.133 238.815 59.01 239.517 59.01C240.261 59.01 240.921 59.139 241.497 59.397C242.073 59.655 242.553 60.024 242.937 60.504C243.321 60.984 243.603 61.569 243.783 62.259C243.969 62.949 244.044 63.726 244.008 64.59H236.556C236.592 65.094 236.685 65.544 236.835 65.94C236.991 66.33 237.198 66.66 237.456 66.93C237.714 67.2 238.017 67.407 238.365 67.551C238.719 67.695 239.115 67.767 239.553 67.767ZM242.343 63.303C242.271 62.391 241.992 61.692 241.506 61.206C241.02 60.714 240.357 60.468 239.517 60.468C238.689 60.468 238.023 60.714 237.519 61.206C237.021 61.698 236.712 62.397 236.592 63.303H242.343ZM248.541 69V60.792H245.202V59.28H253.482V60.792H250.143V69H248.541Z" fill="#141413"/>
</g>
<path d="M25.5 41.8971L25.5 57.4856L13.5 50.5574C12.8333 50.1725 12.8333 49.2102 13.5 48.8253L25.5 41.8971Z" fill="white"/>
</g>
<defs>
<filter id="filter0_d_4_137" x="1" y="10" width="351" height="94" filterUnits="userSpaceOnUse" color-interpolation-filters="sRGB">
<feFlood flood-opacity="0" result="BackgroundImageFix"/>
<feColorMatrix in="SourceAlpha" type="matrix" values="0 0 0 0 0 0 0 0 0 0 0 0 0 0 0 0 0 0 127 0" result="hardAlpha"/>
<feOffset dy="6"/>
<feGaussianBlur stdDeviation="6"/>
<feComposite in2="hardAlpha" operator="out"/>
<feColorMatrix type="matrix" values="0 0 0 0 0.283604 0 0 0 0 0.112714 0 0 0 0 0.112714 0 0 0 0.25 0"/>
<feBlend mode="normal" in2="BackgroundImageFix" result="effect1_dropShadow_4_137"/>
<feBlend mode="normal" in="SourceGraphic" in2="effect1_dropShadow_4_137" result="shape"/>
</filter>
<filter id="filter1_d_4_137" x="0" y="0" width="364" height="118" filterUnits="userSpaceOnUse" color-interpolation-filters="sRGB">
<feFlood flood-opacity="0" result="BackgroundImageFix"/>
<feColorMatrix in="SourceAlpha" type="matrix" values="0 0 0 0 0 0 0 0 0 0 0 0 0 0 0 0 0 0 127 0" result="hardAlpha"/>
<feOffset dy="8"/>
<feGaussianBlur stdDeviation="12"/>
<feComposite in2="hardAlpha" operator="out"/>
<feColorMatrix type="matrix" values="0 0 0 0 0.196078 0 0 0 0 0.203922 0 0 0 0 0.215686 0 0 0 0.08 0"/>
<feBlend mode="normal" in2="BackgroundImageFix" result="effect1_dropShadow_4_137"/>
<feBlend mode="normal" in="SourceGraphic" in2="effect1_dropShadow_4_137" result="shape"/>
</filter>
</defs>
</svg>
