<svg width="25" height="20" viewBox="0 0 25 20" fill="none" xmlns="http://www.w3.org/2000/svg">
<path d="M12.5 13.9985C14.7083 13.9985 16.4985 12.2083 16.4985 9.99997C16.4985 7.79165 14.7083 6.00146 12.5 6.00146C10.2917 6.00146 8.50146 7.79165 8.50146 9.99997C8.50146 12.2083 10.2917 13.9985 12.5 13.9985Z" fill="#949497"/>
<path d="M23.7668 7.41995C22.2164 4.89489 18.6897 0.658447 12.5 0.658447C6.31027 0.658447 2.78358 4.89489 1.23316 7.41995C0.255614 9.00107 0.255614 10.9989 1.23316 12.5801C2.78358 15.1051 6.31027 19.3416 12.5 19.3416C18.6897 19.3416 22.2164 15.1051 23.7668 12.5801C24.7443 10.9989 24.7443 9.00107 23.7668 7.41995ZM12.5 15.9978C9.18752 15.9978 6.5022 13.3124 6.5022 9.99998C6.5022 6.68752 9.18752 4.00221 12.5 4.00221C15.8124 4.00221 18.4978 6.68752 18.4978 9.99998C18.4944 13.3111 15.8111 15.9944 12.5 15.9978Z" fill="#949497"/>
</svg>
