<svg width="59" height="58" viewBox="0 0 59 58" fill="none" xmlns="http://www.w3.org/2000/svg">
<rect x="0.5" width="58" height="58" rx="29" fill="#2F2D2C"/>
<path d="M39.396 24.371C38.841 24.969 37.307 26.548 35.077 28.268C32.739 30.072 30.091 31.526 29.979 31.587C29.83 31.669 29.665 31.71 29.5 31.71C29.335 31.71 29.17 31.669 29.02 31.587C28.909 31.526 26.261 30.072 23.922 28.268C21.692 26.548 20.158 24.969 19.602 24.37L19.013 23.74C18.744 25.127 18.5 26.951 18.5 29.001C18.5 33.459 19.656 36.853 19.706 36.995C19.818 37.319 20.089 37.563 20.423 37.641C20.601 37.683 24.843 38.664 29.501 38.664C34.32 38.664 38.415 37.681 38.587 37.639C38.917 37.559 39.183 37.317 39.295 36.996C39.344 36.855 40.501 33.486 40.501 29C40.501 26.933 40.259 25.114 39.992 23.735L39.398 24.371H39.396Z" fill="white"/>
<path d="M21.0662 23.007C21.4752 23.447 22.9732 25.009 25.1442 26.683C26.7902 27.953 28.6442 29.065 29.5002 29.559C30.3562 29.064 32.2142 27.951 33.8552 26.684C36.0272 25.01 37.5242 23.448 37.9312 23.009L39.4242 21.412C39.3502 21.169 39.3012 21.027 39.2922 21.001C39.1802 20.682 38.9142 20.442 38.5862 20.362C38.4142 20.32 34.3292 19.337 29.4992 19.337C24.7552 19.337 20.5922 20.319 20.4172 20.361C20.0842 20.441 19.8162 20.684 19.7052 21.007C19.6962 21.034 19.6482 21.174 19.5762 21.414L21.0662 23.009V23.007Z" fill="white"/>
</svg>
