<svg width="59" height="58" viewBox="0 0 59 58" fill="none" xmlns="http://www.w3.org/2000/svg">
<rect x="0.5" width="58" height="58" rx="29" fill="#2F2D2C"/>
<path d="M34.1401 39H24.8601C23.8493 38.9633 22.9077 38.477 22.2924 37.6742C21.6772 36.8713 21.4527 35.8356 21.6801 34.85L21.9201 33.71C22.1961 32.1668 23.5227 31.0327 25.0901 31H33.9101C35.4775 31.0327 36.8041 32.1668 37.0801 33.71L37.3201 34.85C37.5475 35.8356 37.323 36.8713 36.7077 37.6742C36.0925 38.477 35.1509 38.9633 34.1401 39Z" fill="white"/>
<path d="M30.0001 29H29.0001C26.791 29 25.0001 27.2092 25.0001 25V22.36C24.9974 21.4681 25.3506 20.6119 25.9813 19.9812C26.612 19.3505 27.4682 18.9973 28.3601 19H30.6401C31.532 18.9973 32.3882 19.3505 33.0189 19.9812C33.6496 20.6119 34.0028 21.4681 34.0001 22.36V25C34.0001 26.0609 33.5787 27.0783 32.8285 27.8284C32.0784 28.5786 31.061 29 30.0001 29Z" fill="white"/>
</svg>
