<svg width="25" height="24" viewBox="0 0 25 24" fill="none" xmlns="http://www.w3.org/2000/svg">
<path d="M17.14 22H7.86C6.84918 21.9633 5.90757 21.477 5.29235 20.6742C4.67713 19.8713 4.45257 18.8356 4.68 17.85L4.92 16.71C5.19604 15.1668 6.52262 14.0327 8.09 14H16.91C18.4774 14.0327 19.804 15.1668 20.08 16.71L20.32 17.85C20.5474 18.8356 20.3229 19.8713 19.7077 20.6742C19.0924 21.477 18.1508 21.9633 17.14 22Z" fill="white"/>
<path d="M13 12H12C9.79086 12 8 10.2092 8 8.00001V5.36001C7.99734 4.46807 8.35048 3.61189 8.98118 2.98119C9.61188 2.35049 10.4681 1.99735 11.36 2.00001H13.64C14.5319 1.99735 15.3881 2.35049 16.0188 2.98119C16.6495 3.61189 17.0027 4.46807 17 5.36001V8.00001C17 9.06088 16.5786 10.0783 15.8284 10.8284C15.0783 11.5786 14.0609 12 13 12Z" fill="white"/>
</svg>
