<svg width="21" height="24" viewBox="0 0 21 24" fill="none" xmlns="http://www.w3.org/2000/svg">
<path d="M17.5 8.424V6.99998C17.5 3.13402 14.366 0 10.5 0C6.634 0 3.50003 3.13402 3.50003 6.99998V8.424C1.68006 9.2183 0.502656 11.0143 0.500031 13V19C0.503312 21.76 2.73995 23.9967 5.5 24H15.5C18.26 23.9967 20.4967 21.76 20.5 19V13C20.4974 11.0143 19.32 9.2183 17.5 8.424ZM11.5 17C11.5 17.5523 11.0523 18 10.5 18C9.94773 18 9.50003 17.5523 9.50003 17V15C9.50003 14.4477 9.94773 14 10.5 14C11.0523 14 11.5 14.4477 11.5 15V17ZM15.5 8.00002H5.5V7.00003C5.5 4.23863 7.73856 2.00002 10.5 2.00002C13.2615 2.00002 15.5 4.23858 15.5 7.00003V8.00002Z" fill="white"/>
</svg>
