<svg width="59" height="58" viewBox="0 0 59 58" fill="none" xmlns="http://www.w3.org/2000/svg">
<rect x="0.5" width="58" height="58" rx="29" fill="#2F2D2C"/>
<path d="M36.5 25.424V24C36.5 20.134 33.366 17 29.5 17C25.634 17 22.5 20.134 22.5 24V25.424C20.68 26.2183 19.5026 28.0143 19.5 30V36C19.5033 38.76 21.7399 40.9967 24.5 41H34.5C37.26 40.9967 39.4966 38.76 39.5 36V30C39.4974 28.0143 38.3199 26.2183 36.5 25.424ZM30.5 34C30.5 34.5523 30.0523 35 29.5 35C28.9477 35 28.5 34.5523 28.5 34V32C28.5 31.4477 28.9477 31 29.5 31C30.0523 31 30.5 31.4477 30.5 32V34ZM34.5 25H24.5V24C24.5 21.2386 26.7385 19 29.5 19C32.2614 19 34.5 21.2386 34.5 24V25Z" fill="white"/>
</svg>
